<svg xmlns="http://www.w3.org/2000/svg"  viewBox="0 0 64 64" width="64px" height="64px"><radialGradient id="tPej6J16wBOvUcYLtul8Qa" cx="32.5" cy="6481.5" r="30.516" gradientTransform="translate(0 -6450)" gradientUnits="userSpaceOnUse"><stop offset="0" stop-color="#afeeff"/><stop offset=".193" stop-color="#bbf1ff"/><stop offset=".703" stop-color="#d7f8ff"/><stop offset="1" stop-color="#e1faff"/></radialGradient><path fill="url(#tPej6J16wBOvUcYLtul8Qa)" d="M59,20h1.5c2.2,0,3.9-2,3.4-4.2c-0.3-1.6-1.9-2.8-3.5-2.8H53c-1.1,0-2-0.9-2-2s0.9-2,2-2h3.4	c1.7,0,3.2-1.1,3.5-2.8C60.4,4,58.7,2,56.5,2H34h-1.5h-24C6.6,2,5,3.6,5,5.5S6.6,9,8.5,9H12c1.1,0,2,0.9,2,2s-0.9,2-2,2H4.6	c-1.7,0-3.2,1.1-3.5,2.8C0.6,18,2.3,20,4.5,20H18v12H4.6c-1.7,0-3.2,1.1-3.5,2.8C0.6,37,2.3,39,4.5,39H5c1.1,0,2,0.9,2,2s-0.9,2-2,2	H4.5c-2.2,0-3.9,2-3.4,4.2C1.4,48.9,2.9,50,4.6,50H10c1.1,0,2,0.9,2,2s-0.9,2-2,2H8.6c-1.7,0-3.2,1.1-3.5,2.8C4.6,59,6.3,61,8.5,61	H31h1.5h23c1.9,0,3.5-1.6,3.5-3.5S57.4,54,55.5,54H52c-1.1,0-2-0.9-2-2s0.9-2,2-2h7.4c1.7,0,3.2-1.1,3.5-2.8	c0.5-2.2-1.3-4.2-3.4-4.2H47V31h12.4c1.7,0,3.2-1.1,3.5-2.8c0.5-2.2-1.3-4.2-3.4-4.2H59c-1.1,0-2-0.9-2-2S57.9,20,59,20z"/><linearGradient id="tPej6J16wBOvUcYLtul8Qb" x1="32.518" x2="31.677" y1="-3844.596" y2="-3934.563" gradientTransform="matrix(1 0 0 -1 0 -3868)" gradientUnits="userSpaceOnUse"><stop offset="0" stop-color="#ff634d"/><stop offset=".204" stop-color="#fe6464"/><stop offset=".521" stop-color="#fc6581"/><stop offset=".794" stop-color="#fa6694"/><stop offset=".989" stop-color="#fa669a"/><stop offset="1" stop-color="#fa669a"/></linearGradient><path fill="url(#tPej6J16wBOvUcYLtul8Qb)" d="M19,9h26c5.5,0,10,4.5,10,10v26c0,5.5-4.5,10-10,10H19c-5.5,0-10-4.5-10-10V19C9,13.5,13.5,9,19,9z"/><path fill="#fff" d="M48.8,36.9c-0.4-0.9-1.2-1.5-2-1.8c-1.5-0.4-2.7-0.5-4-0.5c-0.6,0-1.2,0-1.8,0.1c-0.7,0.1-1.2,0.2-1.8,0.2 c-0.5,0.1-1.1,0.2-1.6,0.3c-0.4-0.4-0.8-0.8-1.2-1.3c-0.8-0.8-1.4-1.6-2-2.5c-0.6-0.9-1.2-1.7-1.8-2.6c0.5-2,1.1-4,1.4-6 c0.1-0.6,0.2-1.2,0.3-1.9c0.1-0.7,0-1.4-0.2-2.1c-0.2-0.7-0.6-1.4-1.3-2c-0.7-0.6-1.6-0.9-2.5-0.7c-1,0.1-1.7,0.7-2.1,1.3 c-0.4,0.6-0.7,1.3-0.8,2c-0.2,1.3-0.1,2.7,0.2,3.8c0.4,1.7,1.1,3.4,1.9,4.9c-0.1,0.2-0.1,0.4-0.2,0.6c-0.8,2.1-1.7,4-2.8,6.1 c-0.6,1.2-1.2,2.3-1.8,3.4c-0.9,0.4-1.9,0.7-2.8,1.2c-1.1,0.5-2.2,1-3.2,1.7c-0.3,0.2-0.5,0.4-0.8,0.6L17.5,42l-0.3,0.3 c-0.4,0.4-0.9,0.9-1.3,1.4c-0.4,0.6-0.8,1.2-0.9,2.1c0,0.5,0.1,1,0.3,1.4c0.2,0.4,0.6,0.7,0.9,1c0.7,0.5,1.8,0.7,2.6,0.5 c0.8-0.2,1.4-0.6,2-1c1.1-0.8,1.9-1.7,2.8-2.6c0.8-0.9,1.6-1.8,2.3-2.8c0.7-1,1.3-2,2-3c0.5-0.2,1-0.3,1.5-0.4 c2.2-0.6,4.5-1.1,6.8-1.6c0.1,0,0.2,0,0.4-0.1c1.2,1,2.5,1.9,4,2.7c0.3,0.1,0.6,0.3,0.9,0.4c0.3,0.1,0.7,0.2,0.9,0.3 c0.6,0.2,1.2,0.4,1.9,0.6c0.7,0.1,1.4,0.2,2.2,0.1c0.4-0.1,0.9-0.2,1.3-0.5c0.4-0.3,0.9-0.7,1.1-1.2c0.2-0.5,0.3-1.1,0.3-1.5 C49.1,37.8,49,37.4,48.8,36.9z M29.6,22.6c-0.3-1-0.5-2-0.4-3c0.1-0.5,0.2-0.9,0.4-1.3c0.2-0.3,0.5-0.6,0.7-0.6 c0.7,0.1,0.8,0.8,0.9,1.6c0,0.2,0,0.4,0,0.7c0,0.2,0,0.4,0,0.7c0,0.5-0.1,1-0.2,1.6c-0.2,0.9-0.4,1.7-0.6,2.6 C30.1,24.1,29.8,23.4,29.6,22.6z M19.4,46c-0.4,0.3-0.8,0.5-1.1,0.6c-0.5,0.2-1.2,0-1.1-0.6c0-0.2,0.2-0.6,0.5-1 c0.3-0.4,0.6-0.8,1-1.1l0.3-0.3l0.3-0.2c0.2-0.1,0.4-0.3,0.6-0.4c0.9-0.6,1.9-1.1,3-1.6c0,0,0.1,0,0.1-0.1 C21.9,43,20.9,44.8,19.4,46z M29.3,36.8c0.1-0.1,1.3-2.5,1.8-3.7c0.2-0.4,0.3-0.8,0.4-1.2c0.2,0.3,0.4,0.6,0.6,0.9 c0.3,0.5,0.7,1,1.1,1.5c0.4,0.5,0.8,0.9,1.3,1.4c0,0,0,0,0,0C32.8,36.1,31.1,36.4,29.3,36.8z M46,38c0,0.2-0.1,0.6-0.5,0.8 c-0.3,0.2-0.8,0.2-1.3,0.2c-0.5,0-1,0-1.5-0.1c-0.5-0.1-0.9-0.3-1.4-0.6c-0.7-0.4-1.4-1-2.1-1.5c0.1,0,0.1,0,0.2,0 c0.6-0.1,1.2-0.2,1.7-0.3c0.6-0.1,1.1-0.1,1.7-0.1c0.6,0,1.1,0,1.6,0.1c0.5,0.1,1,0.3,1.3,0.6C46,37.4,46,37.7,46,38z"/></svg>